<?xml version="1.0" encoding="utf-8"?>
<!-- Svg Vector Icons : http://www.onlinewebfonts.com/icon -->
<!DOCTYPE svg PUBLIC "-//W3C//DTD SVG 1.1//EN" "http://www.w3.org/Graphics/SVG/1.1/DTD/svg11.dtd">
<svg version="1.1" xmlns="http://www.w3.org/2000/svg" xmlns:xlink="http://www.w3.org/1999/xlink" x="0px" y="0px" viewBox="0 0 1000 1000" enable-background="new 0 0 1000 1000" xml:space="preserve">
<metadata> Svg Vector Icons : http://www.onlinewebfonts.com/icon </metadata>
<g><g transform="translate(0.000000,511.000000) scale(0.100000,-0.100000)"><path d="M3528.8,3734.3c-90.1-40.2-327.7-270.2-1711.1-1651.7C604.8,871.6,198.6,455.8,162.2,383C89.4,245,79.8,41.9,137.3-115.2c40.2-111.1,101.6-174.4,1646-1720.7c1446.7-1450.5,1613.4-1611.5,1726.4-1667l124.6-61.3h2625.1c2492.9,0,2630.9,1.9,2738.2,34.5c431.1,134.1,733.9,436.9,868,868c32.6,107.3,34.5,247.2,34.5,2766.9V2759l-44.1,143.7c-103.5,333.4-327.7,601.7-618.9,745.4c-298.9,145.6-90.1,136-2996.9,136H3634.2L3528.8,3734.3z M8564.4,2519.5c124.5-76.6,118.8,55.6,118.8-2408.6c0-2092.4-1.9-2241.9-34.5-2303.2c-17.3-36.4-57.5-84.3-86.2-105.4c-53.6-40.2-59.4-40.2-2232.3-40.2H4151.6l-116.9,53.6c-103.5,47.9-233.8,172.5-1228.3,1168.8c-1186.1,1188-1165,1163.1-1119,1303c15.3,42.2,348.7,389,1117.1,1157.4c1076.9,1073,1157.3,1145.8,1318.3,1195.7c26.8,7.7,1023.2,15.3,2213.1,15.3C8476.3,2557.8,8501.2,2557.8,8564.4,2519.5z"/><path d="M4831.8,1927.4c-159-49.8-304.7-172.5-385.1-327.7c-38.3-70.9-46-115-46-258.7c0-262.5,15.3-287.4,525-800.9l431.1-435l-433.1-436.9c-279.8-281.7-448.4-465.6-477.1-521.2c-59.4-118.8-70.9-325.8-26.8-457.9c49.8-153.3,159-275.9,310.4-350.7c111.1-53.6,147.5-63.2,274-63.2c235.7,0,283.6,32.6,785.6,534.6l429.2,433l433-431.1c503.9-500.1,557.6-534.6,804.8-534.6c176.3,0,283.6,44.1,419.6,170.5c216.5,203.1,251,538.4,78.6,783.7c-30.6,44.1-235.7,258.7-458,480.9l-404.3,402.4l440.7,440.7c321.9,323.8,448.4,463.7,477.1,528.9c147.5,333.4-23,718.6-366,833.5c-130.3,42.1-339.2,28.7-456-28.8c-55.6-28.7-239.5-197.4-521.2-477.1l-436.9-433.1L5786,1419.6c-402.4,400.5-457.9,446.5-557.6,484.8C5115.4,1944.6,4929.5,1956.1,4831.8,1927.4z"/></g></g>
</svg>