<?xml version="1.0" encoding="UTF-8" standalone="no"?>
<!DOCTYPE svg PUBLIC "-//W3C//DTD SVG 1.1//EN" "http://www.w3.org/Graphics/SVG/1.1/DTD/svg11.dtd">
<svg width="100%" height="100%" viewBox="0 0 474 474" version="1.1" xmlns="http://www.w3.org/2000/svg" xmlns:xlink="http://www.w3.org/1999/xlink" xml:space="preserve" xmlns:serif="http://www.serif.com/" style="fill-rule:evenodd;clip-rule:evenodd;stroke-linejoin:round;stroke-miterlimit:2;">
    <path d="M0.002,236.842C0.002,106.024 106.037,0 236.837,0C367.644,0 473.679,106.028 473.679,236.842C473.679,367.637 367.643,473.68 236.837,473.68C106.037,473.681 0.002,367.637 0.002,236.842Z" style="fill:white;fill-rule:nonzero;"/>
    <g transform="matrix(0.855753,0,0,0.855753,237,237)">
        <g transform="matrix(1,0,0,1,-154.333,-154.333)">
            <clipPath id="_clip1">
                <rect x="0" y="0" width="308.667" height="308.667"/>
            </clipPath>
            <g clip-path="url(#_clip1)">
                <g>
                    <g>
                        <rect x="38.073" y="38.073" width="47.592" height="47.592" style="fill:rgb(95,124,138);"/>
                        <rect x="38.073" y="223.002" width="47.592" height="47.592" style="fill:rgb(95,124,138);"/>
                        <path d="M0,163.852L0,308.667L123.739,308.667L123.739,242.038L152.294,242.038L152.294,307.307L186.968,307.307L186.968,278.752L214.163,278.752L214.163,307.307L248.837,307.307L248.837,274.673L273.993,274.673L273.993,307.307L308.667,307.307L308.667,272.633L276.033,272.633L276.033,239.999L241.359,239.999L241.359,272.633L218.58,272.633L218.58,205.325L186.968,205.325L186.968,176.77L219.602,176.77L219.602,209.404L254.276,209.404L254.276,187.648L273.993,187.648L273.993,236.6L308.667,236.6L308.667,185.609L286.911,185.609L286.911,155.014L308.667,155.014L308.667,0L184.928,0L184.928,0.228L152.294,0.228L152.294,38.073L123.739,38.073L123.739,0L0,0L0,144.135L21.756,144.135L21.756,163.852L0,163.852ZM101.982,286.911L21.756,286.911L21.756,206.685L101.982,206.685L101.982,286.911ZM154.333,209.404L183.911,209.404L183.911,239.999L154.333,239.999L154.333,209.404ZM154.333,144.135L181.866,144.135L181.866,174.73L154.333,174.73L154.333,144.135ZM273.993,152.974L255.293,152.974L255.293,142.096L186.967,142.096L186.967,123.739L273.992,123.739L273.992,152.974L273.993,152.974ZM206.684,21.756L286.91,21.756L286.91,101.982L206.684,101.982L206.684,21.756ZM184.928,109.461L154.333,109.461L154.333,41.701L184.928,41.701L184.928,109.461ZM152.294,142.096L123.826,142.096L123.826,111.501L152.294,111.501L152.294,142.096ZM21.756,21.756L101.982,21.756L101.982,101.982L21.756,101.982L21.756,21.756ZM89.152,123.738L89.152,144.135L119.66,144.135L119.66,176.769L152.294,176.769L152.294,207.364L123.739,207.364L123.739,184.928L34.674,184.928L34.674,176.769L89.065,176.769L89.065,142.095L34.674,142.095L34.674,123.738L89.152,123.738Z" style="fill:rgb(95,124,138);fill-rule:nonzero;"/>
                        <rect x="223.002" y="38.073" width="47.592" height="47.592" style="fill:rgb(95,124,138);"/>
                    </g>
                </g>
            </g>
        </g>
    </g>
</svg>
