<?xml version="1.0" encoding="UTF-8" standalone="no"?><!DOCTYPE svg PUBLIC "-//W3C//DTD SVG 1.1//EN" "http://www.w3.org/Graphics/SVG/1.1/DTD/svg11.dtd"><svg width="100%" height="100%" viewBox="0 0 474 474" version="1.1" xmlns="http://www.w3.org/2000/svg" xmlns:xlink="http://www.w3.org/1999/xlink" xml:space="preserve" xmlns:serif="http://www.serif.com/" style="fill-rule:evenodd;clip-rule:evenodd;stroke-linejoin:round;stroke-miterlimit:2;"><path d="M0.002,236.842c0,-130.818 106.035,-236.842 236.835,-236.842c130.807,0 236.842,106.028 236.842,236.842c-0,130.795 -106.036,236.838 -236.842,236.838c-130.8,0.001 -236.835,-106.043 -236.835,-236.838Z" style="fill:#fff;fill-rule:nonzero;"/><path d="M382.65,161.894c-2.393,-4.645 -14.031,-15.284 -33.664,-5.621c-19.633,9.663 -10.149,30.881 -10.149,30.881c7.318,15.011 11.439,31.861 11.439,49.688c-0,62.649 -50.787,113.44 -113.44,113.44c-62.645,0 -113.436,-50.791 -113.436,-113.44c-0,-58.64 44.486,-106.873 101.537,-112.819l-0,29.397c-0,0 -0.079,1.758 1.743,2.865c1.821,1.111 3.646,0 3.646,0l94.106,-55.454c-0,0 2.113,-1.111 2.113,-3.276c-0,-1.791 -2.113,-3.063 -2.113,-3.063l-93.792,-55.137c-0,0 -2.139,-1.529 -4.042,-0.789c-1.9,0.737 -1.66,3.328 -1.66,3.328l-0,31.495c-84.968,6.103 -152.018,76.916 -152.018,163.453c-0,90.528 73.389,163.917 163.917,163.917c90.531,0 163.924,-73.389 163.924,-163.917c-0,-27.018 -6.541,-52.492 -18.111,-74.948Z" style="fill:#3a92c8;fill-rule:nonzero;stroke:#3a92c8;stroke-width:12px;"/></svg>