<?xml version="1.0" encoding="UTF-8" standalone="no"?>
<!DOCTYPE svg PUBLIC "-//W3C//DTD SVG 1.1//EN" "http://www.w3.org/Graphics/SVG/1.1/DTD/svg11.dtd">
<svg width="100%" height="100%" viewBox="0 0 474 474" version="1.1" xmlns="http://www.w3.org/2000/svg" xmlns:xlink="http://www.w3.org/1999/xlink" xml:space="preserve" xmlns:serif="http://www.serif.com/" style="fill-rule:evenodd;clip-rule:evenodd;stroke-linejoin:round;stroke-miterlimit:2;">
    <path d="M0.002,236.842C0.002,106.024 106.037,0 236.837,0C367.644,0 473.679,106.028 473.679,236.842C473.679,367.637 367.643,473.68 236.837,473.68C106.037,473.681 0.002,367.637 0.002,236.842Z" style="fill:rgb(58,146,200);fill-rule:nonzero;"/>
    <path d="M382.65,161.894C380.257,157.249 368.619,146.61 348.986,156.273C329.353,165.936 338.837,187.154 338.837,187.154C346.155,202.165 350.276,219.015 350.276,236.842C350.276,299.491 299.489,350.282 236.836,350.282C174.191,350.282 123.4,299.491 123.4,236.842C123.4,178.202 167.886,129.969 224.937,124.023L224.937,153.42C224.937,153.42 224.858,155.178 226.68,156.285C228.501,157.396 230.326,156.285 230.326,156.285L324.432,100.831C324.432,100.831 326.545,99.72 326.545,97.555C326.545,95.764 324.432,94.492 324.432,94.492L230.64,39.355C230.64,39.355 228.501,37.826 226.598,38.566C224.698,39.303 224.938,41.894 224.938,41.894L224.938,73.389C139.97,79.492 72.92,150.305 72.92,236.842C72.92,327.37 146.309,400.759 236.837,400.759C327.368,400.759 400.761,327.37 400.761,236.842C400.761,209.824 394.22,184.35 382.65,161.894Z" style="fill:rgb(247,247,247);fill-rule:nonzero;"/>
</svg>
